<?xml version="1.0" encoding="UTF-8" standalone="no"?>
<svg
   viewBox="0 0 32 32"
   id="svg4354"
   height="32"
   width="32"
   version="1.1"
   sodipodi:docname="balanced.svg"
   inkscape:version="1.3.2 (091e20ef0f, 2023-11-25)"
   xmlns:inkscape="http://www.inkscape.org/namespaces/inkscape"
   xmlns:sodipodi="http://sodipodi.sourceforge.net/DTD/sodipodi-0.dtd"
   xmlns="http://www.w3.org/2000/svg"
   xmlns:svg="http://www.w3.org/2000/svg"
   xmlns:rdf="http://www.w3.org/1999/02/22-rdf-syntax-ns#"
   xmlns:cc="http://creativecommons.org/ns#"
   xmlns:dc="http://purl.org/dc/elements/1.1/">
  <sodipodi:namedview
     id="namedview1"
     pagecolor="#ffffff"
     bordercolor="#000000"
     borderopacity="0.25"
     inkscape:showpageshadow="2"
     inkscape:pageopacity="0.0"
     inkscape:pagecheckerboard="0"
     inkscape:deskcolor="#d1d1d1"
     inkscape:zoom="17.386194"
     inkscape:cx="28.499625"
     inkscape:cy="20.332225"
     inkscape:window-width="2560"
     inkscape:window-height="1378"
     inkscape:window-x="0"
     inkscape:window-y="30"
     inkscape:window-maximized="1"
     inkscape:current-layer="svg4354" />
  <defs
     id="defs4356">
    <inkscape:path-effect
       effect="fillet_chamfer"
       id="path-effect7"
       is_visible="true"
       lpeversion="1"
       nodesatellites_param="F,0,0,1,0,1,0,1 @ F,0,0,1,0,1,0,1 @ F,0,0,1,0,1,0,1 @ F,0,0,1,0,1,0,1 @ F,0,0,1,0,1,0,1 @ F,0,0,1,0,1,0,1"
       radius="1"
       unit="px"
       method="auto"
       mode="F"
       chamfer_steps="1"
       flexible="false"
       use_knot_distance="true"
       apply_no_radius="true"
       apply_with_radius="true"
       only_selected="false"
       hide_knots="false" />
    <inkscape:path-effect
       effect="fillet_chamfer"
       id="path-effect7-1"
       is_visible="true"
       lpeversion="1"
       nodesatellites_param="F,0,0,1,0,1,0,1 @ F,0,0,1,0,1,0,1 @ F,0,0,1,0,1,0,1 @ F,0,0,1,0,1,0,1 @ F,0,0,1,0,1,0,1 @ F,0,0,1,0,1,0,1"
       radius="1"
       unit="px"
       method="auto"
       mode="F"
       chamfer_steps="1"
       flexible="false"
       use_knot_distance="true"
       apply_no_radius="true"
       apply_with_radius="true"
       only_selected="false"
       hide_knots="false" />
    <inkscape:path-effect
       effect="fillet_chamfer"
       id="path-effect7-0"
       is_visible="true"
       lpeversion="1"
       nodesatellites_param="F,0,0,1,0,1,0,1 @ F,0,0,1,0,1,0,1 @ F,0,0,1,0,1,0,1 @ F,0,0,1,0,1,0,1 @ F,0,0,1,0,1,0,1 @ F,0,0,1,0,1,0,1"
       radius="1"
       unit="px"
       method="auto"
       mode="F"
       chamfer_steps="1"
       flexible="false"
       use_knot_distance="true"
       apply_no_radius="true"
       apply_with_radius="true"
       only_selected="false"
       hide_knots="false" />
  </defs>
  <metadata
     id="metadata4359">
    <rdf:RDF>
      <cc:Work
         rdf:about="">
        <dc:format>image/svg+xml</dc:format>
        <dc:type
           rdf:resource="http://purl.org/dc/dcmitype/StillImage" />
      </cc:Work>
    </rdf:RDF>
  </metadata>
  <path
     id="path3-7"
     style="color:#000000;font-variation-settings:normal;vector-effect:none;fill:#206b00;fill-opacity:1;stroke:none;stroke-width:1;stroke-linecap:butt;stroke-linejoin:miter;stroke-miterlimit:4;stroke-dasharray:none;stroke-dashoffset:0;stroke-opacity:1;-inkscape-stroke:none;marker:none;paint-order:normal;stop-color:#000000"
     d="m 15.862598,1.0097656 c 0.238509,-5.334e-4 0.476285,0.0062 0.714843,0.019531 3.597459,0.1878036 6.698233,3.4516312 6.664063,7.0605469 0.181951,3.4995195 -2.581783,6.8043995 -6.03711,7.3125005 -1.588108,0.133204 -3.244006,0.119439 -4.697265,0.880859 C 9.128493,17.797119 7.127477,21.778521 7.946582,25.392578 8.210736,26.168405 7.5521,27.171237 6.628211,27.191531 5.512752,27.088553 5.094502,26.217502 4.370454,25.484799 1.154692,21.658074 0.131642,15.947743 1.800098,11.212891 3.185676,6.9017242 6.66821,3.3538146 10.956348,1.8964844 c 1.57407,-0.5475397 3.236684,-0.8829849 4.90625,-0.8867188 z m 0.146484,1 c -0.361795,-0.0043 -0.722799,0.00798 -0.998047,0.029297 -4.42801,0.3429286 -10.0161,2.9739289 -12.236328,9.4140624 -0.179974,0.522044 -0.415409,1.387062 -0.517578,1.929687 -0.887126,4.711565 0.681297,9.540977 4.109112,12.767329 0.402087,0.378455 0.741737,0.105826 0.62331,-0.433344 -0.386596,-1.760081 -0.26188,-3.611798 0.40039,-5.320313 0.199511,-0.514693 0.614158,-1.311873 0.919922,-1.771484 1.518092,-2.281926 3.976437,-3.774479 6.701172,-4.070312 0.548791,-0.05958 1.44922,-0.04594 1.994141,-0.132813 2.658237,-0.423811 4.752041,-2.51752 5.175781,-5.1757811 0.08685,-0.5448303 0.08688,-1.4472666 0,-1.9921876 C 21.757146,4.595669 19.663437,2.501865 17.005176,2.078125 16.732761,2.0347007 16.370877,2.0140669 16.009082,2.0097656 Z"
     sodipodi:nodetypes="scccccccccsssssssssssssss"
     class="success" />
  <path
     style="color:#000000;font-variation-settings:normal;opacity:0.1;vector-effect:none;fill:#206b00;fill-opacity:1;stroke:none;stroke-width:1;stroke-linecap:round;stroke-linejoin:round;stroke-miterlimit:4;stroke-dasharray:none;stroke-dashoffset:0;stroke-opacity:1;-inkscape-stroke:none;marker:none;paint-order:normal;stop-color:#000000"
     d="m 16.009082,2.0097656 c -0.361795,-0.0043 -0.722799,0.00798 -0.998047,0.029297 -4.42801,0.3429286 -10.0161,2.9739289 -12.236328,9.4140624 -0.179974,0.522044 -0.415409,1.387062 -0.517578,1.929687 -0.887126,4.711565 0.681297,9.540977 4.109112,12.767329 0.402087,0.378455 0.741737,0.105826 0.62331,-0.433344 -0.386596,-1.760081 -0.26188,-3.611798 0.40039,-5.320313 0.199511,-0.514693 0.614158,-1.311873 0.919922,-1.771484 1.518092,-2.281926 3.976437,-3.774479 6.701172,-4.070312 0.548791,-0.05958 1.44922,-0.04594 1.994141,-0.132813 2.658237,-0.423811 4.752041,-2.51752 5.175781,-5.1757811 0.08685,-0.5448303 0.08688,-1.4472666 0,-1.9921876 C 21.757146,4.595669 19.663437,2.501865 17.005176,2.078125 16.732761,2.0347007 16.370877,2.0140669 16.009082,2.0097656 Z"
     id="path9" />
  <path
     id="path3-7-2"
     style="color:#000000;font-variation-settings:normal;vector-effect:none;fill:#ad5f00;fill-opacity:1;stroke:none;stroke-width:1;stroke-linecap:butt;stroke-linejoin:miter;stroke-miterlimit:4;stroke-dasharray:none;stroke-dashoffset:0;stroke-opacity:1;-inkscape-stroke:none;marker:none;paint-order:normal;stop-color:#000000"
     d="m 16.146484,30.99997 c -0.238509,5.34e-4 -0.476285,-0.0062 -0.714843,-0.01953 -3.597459,-0.187803 -6.6982326,-3.451631 -6.6640629,-7.060547 -0.1819515,-3.499519 2.5817829,-6.804399 6.0371099,-7.3125 1.588108,-0.133204 3.244006,-0.119439 4.697265,-0.880859 3.378636,-1.513916 5.379652,-5.495318 4.560547,-9.109375 -0.264154,-0.775827 0.394482,-1.778659 1.318371,-1.798953 1.115459,0.102978 1.533709,0.974029 2.257757,1.706732 3.215762,3.826725 4.238812,9.537056 2.570356,14.271908 -1.385578,4.311167 -4.868112,7.859076 -9.15625,9.316407 -1.57407,0.547539 -3.236684,0.882984 -4.90625,0.886718 z M 16,29.99997 c 0.361795,0.0043 0.722799,-0.008 0.998047,-0.0293 4.42801,-0.342928 10.0161,-2.973929 12.236328,-9.414062 0.179974,-0.522044 0.415409,-1.387062 0.517578,-1.929687 0.887126,-4.711565 -0.681297,-9.540977 -4.109112,-12.767329 -0.402087,-0.378455 -0.741737,-0.105826 -0.62331,0.433344 0.386596,1.760081 0.26188,3.611798 -0.40039,5.320313 -0.199511,0.514693 -0.614158,1.311873 -0.919922,1.771484 -1.518092,2.281926 -3.976437,3.774479 -6.701172,4.070312 -0.548791,0.05958 -1.44922,0.04594 -1.994141,0.132813 -2.658237,0.423811 -4.752041,2.51752 -5.175781,5.175781 -0.086849,0.54483 -0.086878,1.447267 0,1.992188 0.423811,2.658237 2.51752,4.752041 5.175781,5.175781 0.272415,0.04342 0.634299,0.06406 0.996094,0.06836 z"
     sodipodi:nodetypes="scccccccccsssssssssssssss"
     class="warning" />
  <path
     style="color:#000000;font-variation-settings:normal;opacity:0.1;vector-effect:none;fill:#ad5f00;fill-opacity:1;stroke:none;stroke-width:1;stroke-linecap:round;stroke-linejoin:round;stroke-miterlimit:4;stroke-dasharray:none;stroke-dashoffset:0;stroke-opacity:1;-inkscape-stroke:none;marker:none;paint-order:normal;stop-color:#000000"
     d="m 16,29.99997 c 0.361795,0.0043 0.722799,-0.008 0.998047,-0.0293 4.42801,-0.342928 10.0161,-2.973929 12.236328,-9.414062 0.179974,-0.522044 0.415409,-1.387062 0.517578,-1.929687 0.887126,-4.711565 -0.681297,-9.540977 -4.109112,-12.767329 -0.402087,-0.378455 -0.741737,-0.105826 -0.62331,0.433344 0.386596,1.760081 0.26188,3.611798 -0.40039,5.320313 -0.199511,0.514693 -0.614158,1.311873 -0.919922,1.771484 -1.518092,2.281926 -3.976437,3.774479 -6.701172,4.070312 -0.548791,0.05958 -1.44922,0.04594 -1.994141,0.132813 -2.658237,0.423811 -4.752041,2.51752 -5.175781,5.175781 -0.086849,0.54483 -0.086878,1.447267 0,1.992188 0.423811,2.658237 2.51752,4.752041 5.175781,5.175781 0.272415,0.04342 0.634299,0.06406 0.996094,0.06836 z"
     id="path9-8"
     class="warning" />
</svg>
