<?xml version="1.0" encoding="UTF-8" standalone="no"?>
<svg
   id="svg4121"
   height="16"
   width="16"
   version="1.1"
   xmlns:xlink="http://www.w3.org/1999/xlink"
   xmlns="http://www.w3.org/2000/svg"
   xmlns:svg="http://www.w3.org/2000/svg"
   xmlns:rdf="http://www.w3.org/1999/02/22-rdf-syntax-ns#"
   xmlns:cc="http://creativecommons.org/ns#"
   xmlns:dc="http://purl.org/dc/elements/1.1/">
  <defs
     id="defs4123">
    <linearGradient
       id="linearGradient841">
      <stop
         id="stop837"
         offset="0"
         style="stop-color:#ffe16b;stop-opacity:1" />
      <stop
         id="stop839"
         offset="1"
         style="stop-color:#f9c440;stop-opacity:1" />
    </linearGradient>
    <linearGradient
       gradientTransform="matrix(1.1022033,0,0,1.1022038,-63.55275,-14.715001)"
       gradientUnits="userSpaceOnUse"
       xlink:href="#linearGradient4806-9"
       id="linearGradient3220"
       y2="40.495617"
       x2="71.204407"
       y1="15.369057"
       x1="71.204407" />
    <linearGradient
       id="linearGradient4806-9">
      <stop
         offset="0"
         style="stop-color:#ffffff;stop-opacity:1"
         id="stop4808-49" />
      <stop
         offset="0.42447853"
         style="stop-color:#ffffff;stop-opacity:0.23529412"
         id="stop4810-05" />
      <stop
         offset="0.82089913"
         style="stop-color:#ffffff;stop-opacity:0.15686275"
         id="stop4812-6" />
      <stop
         offset="1"
         style="stop-color:#ffffff;stop-opacity:0.39215687"
         id="stop4814-7" />
    </linearGradient>
    <linearGradient
       id="linearGradient3820-7-2-2">
      <stop
         offset="0"
         style="stop-color:#3d3d3d;stop-opacity:1"
         id="stop3822-2-6-36" />
      <stop
         offset="0.5"
         style="stop-color:#686868;stop-opacity:0.49803922"
         id="stop3864-8-7-6" />
      <stop
         offset="1"
         style="stop-color:#686868;stop-opacity:0"
         id="stop3824-1-2-4" />
    </linearGradient>
    <radialGradient
       gradientTransform="matrix(0.17524541,0,0,0.05575992,-1.37681,18.119145)"
       gradientUnits="userSpaceOnUse"
       xlink:href="#linearGradient3820-7-2-2"
       id="radialGradient4119"
       fy="186.17059"
       fx="99.157013"
       r="62.769119"
       cy="186.17059"
       cx="99.157013" />
    <linearGradient
       gradientTransform="rotate(90,16,16)"
       gradientUnits="userSpaceOnUse"
       y2="16"
       x2="30.499807"
       y1="16"
       x1="1.500193"
       id="linearGradient843"
       xlink:href="#linearGradient841" />
  </defs>
  <metadata
     id="metadata4126">
    <rdf:RDF>
      <cc:Work
         rdf:about="">
        <dc:format>image/svg+xml</dc:format>
        <dc:type
           rdf:resource="http://purl.org/dc/dcmitype/StillImage" />
      </cc:Work>
    </rdf:RDF>
  </metadata>
  <path
     id="path54"
     style="font-variation-settings:normal;opacity:1;vector-effect:none;fill:#68b723;fill-opacity:1;stroke:none;stroke-width:1;stroke-linecap:butt;stroke-linejoin:miter;stroke-miterlimit:4;stroke-dasharray:none;stroke-dashoffset:0;stroke-opacity:1;marker:none;stop-color:#000000;stop-opacity:1"
     d="M 8.3339844 0.66796875 C 8.1350276 0.66796875 7.9561343 0.75436656 7.8339844 0.89257812 L 2.09375 8.9941406 C 2.0345401 9.0937305 2 9.2097015 2 9.3339844 C 2 9.702174 2.297825 10 2.6660156 10 L 8 10 L 7.0566406 14.400391 C 7.0209407 14.482061 7 14.57313 7 14.667969 C 7 15.03616 7.297826 15.333984 7.6660156 15.333984 C 7.8649754 15.333984 8.0438677 15.247594 8.1660156 15.109375 L 13.90625 7.0078125 C 13.96546 6.9082236 14 6.7922496 14 6.6679688 C 14 6.2997791 13.702176 6 13.333984 6 L 8 6 L 8.9433594 1.6015625 C 8.9790593 1.5198926 9 1.4288243 9 1.3339844 C 9 0.96579424 8.702175 0.66796875 8.3339844 0.66796875 z M 7.6425781 2.8925781 C 7.3494257 4.2616781 7.0551099 5.6305336 6.7636719 7 L 12.685547 7 L 8.3574219 13.109375 C 8.6505484 11.739618 8.944678 10.370072 9.2363281 9 L 3.3164062 9 L 7.6425781 2.8925781 z "
     class="success" />
</svg>
