<?xml version="1.0" encoding="UTF-8" standalone="no"?>
<svg
   id="svg4121"
   height="16"
   width="16"
   version="1.1"
   xmlns="http://www.w3.org/2000/svg"
   xmlns:svg="http://www.w3.org/2000/svg"
   xmlns:rdf="http://www.w3.org/1999/02/22-rdf-syntax-ns#"
   xmlns:cc="http://creativecommons.org/ns#"
   xmlns:dc="http://purl.org/dc/elements/1.1/">
  <defs
     id="defs4123" />
  <metadata
     id="metadata4126">
    <rdf:RDF>
      <cc:Work
         rdf:about="">
        <dc:format>image/svg+xml</dc:format>
        <dc:type
           rdf:resource="http://purl.org/dc/dcmitype/StillImage" />
      </cc:Work>
    </rdf:RDF>
  </metadata>
  <path
     id="path54"
     style="font-variation-settings:normal;opacity:0.5;vector-effect:none;fill:#555761;fill-opacity:1;stroke:none;stroke-width:1;stroke-linecap:butt;stroke-linejoin:miter;stroke-miterlimit:4;stroke-dasharray:none;stroke-dashoffset:0;stroke-opacity:1;marker:none;stop-color:#000000;stop-opacity:1"
     d="M 8.3339844 0.66796875 C 8.1350276 0.66796875 7.9561343 0.75436656 7.8339844 0.89257812 L 2.09375 8.9941406 C 2.0345401 9.0937305 2 9.2097015 2 9.3339844 C 2 9.702174 2.297825 10 2.6660156 10 L 8 10 L 7.0566406 14.400391 C 7.0209407 14.482061 7 14.57313 7 14.667969 C 7 15.03616 7.297826 15.333984 7.6660156 15.333984 C 7.8649754 15.333984 8.0438677 15.247594 8.1660156 15.109375 L 8.6816406 14.380859 C 8.294141 13.778266 8.0523673 13.083749 8.0175781 12.347656 C 7.7476599 9.846947 9.9374429 7.4575438 12.451172 7.5019531 C 12.800696 7.4927782 13.146637 7.5292553 13.482422 7.6054688 L 13.90625 7.0078125 C 13.96546 6.9082236 14 6.7922496 14 6.6679688 C 14 6.2997791 13.702176 6 13.333984 6 L 8 6 L 8.9433594 1.6015625 C 8.9790593 1.5198926 9 1.4288243 9 1.3339844 C 9 0.96579424 8.702175 0.66796875 8.3339844 0.66796875 z " />
  <path
     id="path2555-7-8-5-0-9-2"
     style="color:#000000;display:inline;overflow:visible;visibility:visible;opacity:0.99;fill:#555761;fill-opacity:1;fill-rule:nonzero;stroke:none;stroke-width:0.999995;marker:none;enable-background:accumulate"
     d="M 12.5 8.5 C 10.568823 8.5 9 10.068823 9 12 C 9 13.931179 10.568823 15.5 12.5 15.5 C 14.431179 15.5 16.000004 13.931179 16 12 C 16 10.068823 14.431179 8.5 12.5 8.5 z M 11.125 10 L 11.875 10 C 11.944253 10 12 10.073683 12 10.166016 L 12 13.833984 C 12 13.92631 11.944254 14 11.875 14 L 11.125 14 C 11.055757 14 11 13.926322 11 13.833984 L 11 10.166016 C 11 10.073684 11.05575 10 11.125 10 z M 13.125 10 L 13.875 10 C 13.944242 10 14 10.073683 14 10.166016 L 14 13.833984 C 14 13.92631 13.944263 14 13.875 14 L 13.125 14 C 13.05575 14 13 13.926324 13 13.833984 L 13 10.166016 C 13 10.073684 13.05574 10 13.125 10 z " />
</svg>
