<svg width="32" height="32" viewBox="0 0 32 32" fill="none" xmlns="http://www.w3.org/2000/svg">
<path d="M7.98649 27.6609C7.49588 27.5644 7.49591 27.5643 7.49595 27.5641L7.49605 27.5636L7.49638 27.5619L7.4975 27.5563L7.50165 27.5358C7.50527 27.5181 7.51061 27.4924 7.51773 27.459C7.53197 27.3923 7.55334 27.2949 7.58235 27.1697C7.64036 26.9193 7.72895 26.5578 7.85219 26.1085C8.09857 25.2102 8.48403 23.9589 9.04145 22.5421C9.64217 21.0153 10.4469 19.2854 11.4994 17.5949C10.237 18.9739 9.24474 20.4084 8.48747 21.6944C7.78506 22.8873 7.28804 23.947 6.96727 24.7066C6.80696 25.0863 6.69088 25.3905 6.61535 25.5983C6.57759 25.7022 6.54997 25.782 6.53205 25.835C6.52309 25.8615 6.51655 25.8813 6.51237 25.8941L6.50788 25.908L6.50695 25.9109L6.50689 25.911L6.50683 25.9113L6.50681 25.9113L5.96253 27.6385L5.54357 25.8764L6.03001 25.7608C5.54357 25.8764 5.54352 25.8762 5.54347 25.876L5.54331 25.8753L5.54284 25.8733L5.54135 25.8669L5.53617 25.8442C5.53179 25.8248 5.5256 25.7967 5.51791 25.7604C5.50253 25.6879 5.48114 25.5825 5.45626 25.4472C5.4065 25.1767 5.34267 24.7866 5.28486 24.3012C5.16934 23.3314 5.07725 21.9767 5.17119 20.4346C5.35866 17.3574 6.2912 13.4815 9.31679 10.4559C12.0031 7.76962 16.2126 6.03577 19.6891 4.97453C21.4376 4.44079 23.0212 4.07124 24.1678 3.83502C24.7414 3.71685 25.2063 3.63191 25.5288 3.57638C25.69 3.54861 25.8156 3.52819 25.9015 3.51464C25.9444 3.50787 25.9773 3.50281 25.9998 3.49941L26.0256 3.49555L26.0325 3.49453L26.0344 3.49425L26.035 3.49417C26.0351 3.49414 26.0353 3.49412 26.107 3.98895M7.98649 27.6609C7.86614 28.1462 7.8664 28.1462 7.86669 28.1463L7.86747 28.1465L7.86974 28.147L7.87704 28.1488L7.90263 28.1548C7.92451 28.1599 7.95595 28.1671 7.99649 28.1758C8.07757 28.1934 8.19511 28.2175 8.34538 28.2448C8.64584 28.2993 9.07777 28.3667 9.61138 28.4201C10.6773 28.5267 12.156 28.5778 13.8065 28.3544C17.113 27.9067 21.1312 26.3506 23.8588 21.9247C26.0108 18.4326 26.6841 13.9099 26.8327 10.31C26.9073 8.50165 26.8501 6.90812 26.7742 5.76618C26.7363 5.19493 26.6936 4.73594 26.6603 4.41873C26.6437 4.2601 26.6293 4.13687 26.6191 4.05272C26.614 4.01064 26.6099 3.97833 26.607 3.95624L26.6037 3.93083L26.6028 3.92399L26.6025 3.92205L26.6024 3.92145C26.6024 3.92126 26.6024 3.92111 26.107 3.98895M7.98649 27.6609L7.49588 27.5644L7.40407 28.0316L7.86614 28.1462L7.98649 27.6609ZM26.107 3.98895L26.0353 3.49412L26.534 3.42184L26.6024 3.92111L26.107 3.98895Z" fill="url(#paint0_linear)" fill-opacity="0.75" stroke="#489416"/>
<path opacity="0.75" d="M15.4433 14.237L14.8252 13.4568C11.3961 15.6756 9.08093 18.7158 7.62577 21.187C7.027 22.2039 6.57164 23.1281 6.24257 23.8652C6.15049 22.9717 6.08967 21.8033 6.16934 20.4954C6.34877 17.5503 7.2364 13.9505 10.0239 11.163C12.5282 8.65871 16.5369 6.98232 19.9811 5.93096C21.693 5.40839 23.2454 5.04605 24.3696 4.81445C24.9148 4.70213 25.3586 4.6207 25.6703 4.56673C25.7018 4.87074 25.7412 5.30112 25.7764 5.83245C25.8505 6.94749 25.9064 8.50416 25.8335 10.2688C25.6872 13.8147 25.0235 18.1287 23.0074 21.4C20.4806 25.5002 16.7755 26.9433 13.6723 27.3634C12.1179 27.5738 10.7202 27.526 9.71086 27.425C9.24293 27.3783 8.86002 27.3202 8.58557 27.2719C8.64016 27.0425 8.71638 26.7383 8.81658 26.373C9.05549 25.5019 9.43016 24.2854 9.97201 22.9082C11.0589 20.1459 12.8038 16.7748 15.4433 14.237Z" fill="url(#paint1_linear)" stroke="url(#paint2_linear)"/>
<path opacity="0.5" d="M6.77362 28.4119C10.935 29.2611 19.1406 30.2297 24.2358 22.3546C28.9496 15.069 26.9366 2.88086 26.9366 2.88086C26.9366 2.88086 15.0462 4.02971 8.9013 10.1746C4.92364 14.1522 4.46223 19.6685 4.69525 23.9318C4.81714 26.1618 5.31114 27.1507 5.93252 29.6541C5.93252 29.6541 6.96205 25.1939 8.36068 23.131" stroke="#0B2500"/>
<defs>
<linearGradient id="paint0_linear" x1="16" y1="3.98895" x2="16" y2="28.011" gradientUnits="userSpaceOnUse">
<stop stop-color="#9BDB4D"/>
<stop offset="1" stop-color="#68B723"/>
</linearGradient>
<linearGradient id="paint1_linear" x1="16" y1="3.98895" x2="16" y2="28.011" gradientUnits="userSpaceOnUse">
<stop stop-color="#9BDB4D"/>
<stop offset="1" stop-color="#68B723"/>
</linearGradient>
<linearGradient id="paint2_linear" x1="16" y1="3.98895" x2="16" y2="28.011" gradientUnits="userSpaceOnUse">
<stop stop-color="white" stop-opacity="0.6"/>
<stop offset="0.338542" stop-color="white" stop-opacity="0.2353"/>
<stop offset="0.6875" stop-color="white" stop-opacity="0.1569"/>
<stop offset="1" stop-color="white" stop-opacity="0.3922"/>
</linearGradient>
</defs>
</svg>
