<svg width="32" height="32" viewBox="0 0 32 32" fill="none" xmlns="http://www.w3.org/2000/svg">
<path opacity="0.75" d="M16 1.5C7.9994 1.5 1.5 7.9994 1.5 16C1.5 24.0006 7.9994 30.5 16 30.5C24.0006 30.5 30.5 24.0006 30.5 16C30.5 7.9994 24.0006 1.5 16 1.5Z" fill="url(#paint0_linear)"/>
<path opacity="0.5" d="M29.5 15.9995C29.5 23.4556 23.4554 29.5 16.0002 29.5C8.54425 29.5 2.5 23.4555 2.5 15.9995C2.5 8.54378 8.54425 2.5 16.0002 2.5C23.4554 2.5 29.5 8.54378 29.5 15.9995V15.9995Z" stroke="url(#paint1_linear)" stroke-linecap="round" stroke-linejoin="round"/>
<path d="M21.0993 25.1633C18.9426 26.3856 16.5061 26.6586 14.0784 26.2411C11.6507 25.8235 9.32691 24.5893 7.746 22.7242C6.1651 20.859 5.32388 18.6905 5.3177 16.2366C5.31153 13.7827 6.16816 11.3928 7.73956 9.48007C9.31095 7.5673 11.4984 6.2518 13.9238 5.76092C16.3492 5.27004 18.8602 5.63462 21.0228 6.79167" stroke="url(#paint2_linear)" stroke-width="2.29317" stroke-linecap="round" stroke-linejoin="round"/>
<path opacity="0.5" d="M15.9737 6.80847C10.787 6.80847 6.57346 10.9066 6.57346 15.9514C6.57346 20.9961 10.787 25.0943 15.9737 25.0943C21.1604 25.0943 25.3739 20.9961 25.3739 15.9514C25.3739 10.9066 21.1604 6.80847 15.9737 6.80847V6.80847Z" stroke="#0E141F" stroke-width="0.386649"/>
<path opacity="0.85" d="M24.9309 15.9509C24.9309 20.7778 20.9199 24.6907 15.9721 24.6907C11.0243 24.6907 7.01328 20.7778 7.01328 15.9509C7.01328 11.1241 11.0243 7.2112 15.9721 7.2112C20.9199 7.2112 24.9309 11.1241 24.9309 15.9509V15.9509Z" stroke="url(#paint3_linear)" stroke-width="0.479249" stroke-linecap="round" stroke-linejoin="round"/>
<path opacity="0.5" d="M16.0488 4.31894C9.44523 4.31894 4.08075 9.5395 4.08075 15.9659C4.08075 22.3923 9.44523 27.6128 16.0488 27.6128C22.6523 27.6128 28.0168 22.3923 28.0168 15.9659C28.0168 9.5395 22.6523 4.31894 16.0488 4.31894V4.31894Z" stroke="#1F0E0E" stroke-width="0.394425"/>
<path opacity="0.25" d="M16.2388 10.7663C16.0796 10.7663 15.9365 10.8329 15.8388 10.9388L11.2471 17.1441C11.1997 17.2203 11.1721 17.3092 11.1721 17.4044C11.1721 17.6864 11.4109 17.915 11.7054 17.915H15.9721L15.2169 21.2849C15.1883 21.3475 15.1721 21.4167 15.1721 21.4894C15.1721 21.7714 15.4109 22 15.7054 22C15.8646 22 16.0077 21.9333 16.1054 21.8275L20.6971 15.6222C20.7445 15.5459 20.7721 15.4571 20.7721 15.3619C20.7721 15.0799 20.5333 14.8513 20.2388 14.8513H15.9721L16.7273 11.4813C16.7559 11.4188 16.7721 11.3495 16.7721 11.2769C16.7721 10.9949 16.5333 10.7663 16.2388 10.7663Z" fill="black"/>
<path opacity="0.85" d="M16.2388 10C16.0796 10 15.9365 10.0667 15.8388 10.1725L11.2471 16.3778C11.1997 16.4541 11.1721 16.5429 11.1721 16.6381C11.1721 16.9201 11.4109 17.1487 11.7054 17.1487H15.9721L15.2169 20.5187C15.1883 20.5812 15.1721 20.6505 15.1721 20.7231C15.1721 21.0051 15.4109 21.2337 15.7054 21.2337C15.8646 21.2337 16.0077 21.1671 16.1054 21.0612L20.6971 14.8559C20.7445 14.7796 20.7721 14.6908 20.7721 14.5956C20.7721 14.3136 20.5333 14.085 20.2388 14.085H15.9721L16.7273 10.7151C16.7559 10.6525 16.7721 10.5833 16.7721 10.5106C16.7721 10.2286 16.5333 10 16.2388 10Z" fill="#FFE16B"/>
<path opacity="0.5" d="M16 1.5018C8.0004 1.5018 1.5018 8.00039 1.5018 16C1.5018 23.9996 8.0004 30.4982 16 30.4982C23.9996 30.4982 30.4982 23.9996 30.4982 16C30.4982 8.00039 23.9996 1.5018 16 1.5018V1.5018Z" stroke="#440000" stroke-linecap="round" stroke-linejoin="round"/>
<defs>
<linearGradient id="paint0_linear" x1="11.9394" y1="2.30228" x2="11.9394" y2="30.4875" gradientUnits="userSpaceOnUse">
<stop stop-color="#C6262E"/>
<stop offset="1" stop-color="#A60000"/>
</linearGradient>
<linearGradient id="paint1_linear" x1="15.6139" y1="2.04781" x2="15.6139" y2="29.8529" gradientUnits="userSpaceOnUse">
<stop stop-color="white"/>
<stop offset="0.507761" stop-color="white" stop-opacity="0.235294"/>
<stop offset="0.834566" stop-color="white" stop-opacity="0.156863"/>
<stop offset="1" stop-color="white" stop-opacity="0.392157"/>
</linearGradient>
<linearGradient id="paint2_linear" x1="20.8897" y1="25.2215" x2="20.6888" y2="5.78346" gradientUnits="userSpaceOnUse">
<stop stop-color="#F37329" stop-opacity="0.9"/>
<stop offset="0.354167" stop-color="#FBAC4B"/>
<stop offset="0.703125" stop-color="#F9C440"/>
<stop offset="1" stop-color="#FFF394"/>
</linearGradient>
<linearGradient id="paint3_linear" x1="15.2502" y1="6.89353" x2="15.2502" y2="25.1032" gradientUnits="userSpaceOnUse">
<stop stop-color="white"/>
<stop offset="0.424479" stop-color="white" stop-opacity="0.235294"/>
<stop offset="0.820899" stop-color="white" stop-opacity="0.156863"/>
<stop offset="1" stop-color="white" stop-opacity="0.392157"/>
</linearGradient>
</defs>
</svg>
