<svg width="32" height="32" viewBox="0 0 32 32" fill="none" xmlns="http://www.w3.org/2000/svg">
<path d="M16 1.5C7.9994 1.5 1.5 7.9994 1.5 16C1.5 24.0006 7.9994 30.5 16 30.5C24.0006 30.5 30.5 24.0006 30.5 16C30.5 7.9994 24.0006 1.5 16 1.5Z" fill="url(#paint0_radial)"/>
<path opacity="0.3" d="M15.7187 1.5C18.003 1.5 23.0624 5.58561 23.0624 11.7137C23.0624 15.6111 19.8752 17 15.9687 17L15.5937 17.0313C11.7575 17.2256 8.68741 20.3751 8.68741 24.25C8.68741 26.3974 9.63478 28.3319 11.1249 29.6563C12.6478 30.2003 14.2915 30.5 15.9999 30.5C23.8301 30.5 30.2 24.2654 30.4687 16.5C30.2051 8.70162 23.8362 1.51942 15.9999 1.5C15.9893 1.5 15.9793 1.49998 15.9687 1.5C15.8853 1.5 15.8013 1.5 15.7187 1.5H15.7187Z" fill="black"/>
<path opacity="0.15" d="M15.9999 1.5C15.4892 1.5 14.997 1.51084 14.4999 1.5625C14.5192 1.84042 14.6424 2.10087 14.8451 2.29199C15.0478 2.4831 15.3151 2.59084 15.5937 2.59375C16.8102 2.59375 18.3883 3.49296 19.6562 4.9375C20.91 6.36604 21.8438 8.26396 21.9687 9.9375C21.9697 9.95624 21.9677 9.98132 21.9687 10C21.9343 13.2638 19.2553 15.9062 15.9687 15.9062C15.9374 15.9049 15.9062 15.9049 15.875 15.9062L15.5312 15.9375H15.5C11.1043 16.1767 7.59375 19.8005 7.59375 24.25C7.59375 25.8509 8.052 27.3399 8.84375 28.5938C10.9587 29.8005 13.3936 30.5 16 30.5C24.0006 30.5 30.5 24.0006 30.5 16C30.5 7.9994 24.0006 1.5 16 1.5H15.9999Z" fill="black"/>
<path d="M15.484 1.40264C19.2592 1.40264 22.6782 4.83458 22.937 8.87142C22.937 12.7864 19.7633 15.9668 15.8566 15.9668L15.484 15.9901C11.6477 16.1854 8.5899 19.3564 8.5899 23.2488C8.5899 27.1413 11.6477 30.3123 15.484 30.5076V30.5309C15.6084 30.534 15.7315 30.5309 15.8566 30.5309C23.8749 30.5309 30.39 24.002 30.39 15.9668C30.39 7.93152 23.8749 1.40263 15.8566 1.40263C15.7315 1.40263 15.6084 1.39953 15.484 1.40263V1.40264Z" fill="url(#paint1_radial)"/>
<path opacity="0.3" d="M15.6021 1.47723C19.3774 1.47723 22.7925 4.82859 23.0513 8.86544C23.0513 12.7804 19.8846 15.9771 15.9779 15.9771L15.6021 15.9993C11.7658 16.1945 8.57979 19.3515 8.57979 23.2439C8.57979 27.1363 11.7658 30.3154 15.6021 30.5107V30.5328C15.7265 30.5359 15.8527 30.5328 15.9779 30.5328M16 1.46574C7.99908 1.46574 1.49942 7.98017 1.49942 15.9993C1.49942 24.0184 7.99908 30.5328 16 30.5328C24.0009 30.5328 30.5006 24.0184 30.5006 15.9993C30.5006 7.98017 24.0009 1.46574 16 1.46574Z" stroke="#002728"/>
<path opacity="0.5" d="M22.2016 4.01532C23.7701 6.10763 23.9505 6.92311 24.0868 9.04838C24.2595 13.2833 20.2592 16.7813 16.6195 16.9138C16.2787 16.941 15.9081 17.0017 15.5882 17.027C12.0985 17.027 9.56752 20.3756 9.56752 23.0906C9.56752 26.5251 12.3872 29.3587 15.6538 29.525M29.5 16C29.5 23.4728 23.4558 29.5307 16 29.5307C8.54416 29.5307 2.5 23.4728 2.5 16C2.5 8.52719 8.54416 2.46928 16 2.46928C23.4558 2.46928 29.5 8.52719 29.5 16Z" stroke="url(#paint2_linear)" stroke-linecap="round" stroke-linejoin="round"/>
<path d="M15.8161 23.021C14.4941 23.9473 14 25.6652 14 25.6652C14 25.6652 13.5933 23.6091 14.7429 22.3642C15.7694 21.2526 17.9157 21 17.9157 21C17.9157 21 18.289 23.24 17.4647 24.6884C16.4255 26.5142 14.5 26 14.5 26C14.5 26 14.7429 24.1383 15.8161 23.021Z" fill="white"/>
<path d="M14.5 26C14.371 26.4831 14.3712 26.4831 14.3715 26.4832L14.372 26.4833L14.3733 26.4837L14.3763 26.4845L14.3845 26.4865L14.4092 26.4925C14.4293 26.4971 14.4567 26.5031 14.4905 26.5096C14.5581 26.5225 14.6523 26.5378 14.7673 26.5493C14.9961 26.5722 15.3145 26.5809 15.6731 26.5224C16.4037 26.4032 17.2911 26.0042 17.8992 24.9357C18.3743 24.101 18.4892 23.0766 18.4993 22.3076C18.5044 21.9152 18.4823 21.5715 18.4589 21.3253C18.4472 21.202 18.4351 21.1024 18.4257 21.0326C18.421 20.9977 18.417 20.9702 18.4141 20.9508L18.4105 20.9279L18.4095 20.9212L18.4091 20.9191L18.409 20.9184L18.4089 20.9181C18.4089 20.9179 18.4089 20.9178 17.9157 21M14.5 26C14.0042 25.9353 14.0042 25.9352 14.0042 25.9351L14.0043 25.9347L14.0044 25.934L14.0046 25.932L14.0055 25.9261L14.0083 25.9062C14.0107 25.8896 14.0143 25.8662 14.0192 25.8366C14.0218 25.8209 14.0247 25.8034 14.0281 25.7842L13.5095 25.7622L14 25.6652C13.5095 25.7622 13.5095 25.762 13.5094 25.7619L13.5094 25.7615L13.5092 25.7606L13.5087 25.7582L13.5074 25.7511L13.5032 25.7283C13.4999 25.7092 13.4955 25.6826 13.4904 25.6492C13.4803 25.5824 13.4677 25.488 13.4567 25.3718C13.4346 25.1401 13.4183 24.8171 13.4413 24.4502C13.4866 23.7287 13.6887 22.7688 14.3756 22.025C14.981 21.3694 15.8795 20.9964 16.5688 20.7869C16.9225 20.6794 17.241 20.6091 17.4715 20.5655C17.587 20.5437 17.6812 20.5284 17.7475 20.5185C17.7807 20.5136 17.8069 20.5099 17.8255 20.5075L17.8474 20.5046L17.8539 20.5038L17.856 20.5036L17.8567 20.5035L17.857 20.5035C17.8571 20.5034 17.8572 20.5034 17.9157 21M14.5 26L14.371 26.4831L13.9475 26.37L14.0042 25.9353L14.5 26ZM17.9157 21L18.4089 20.9178L18.3306 20.4477L17.8572 20.5034L17.9157 21Z" stroke="black" stroke-opacity="0.25"/>
<g opacity="0.85">
<path d="M15.6389 6C15.556 6 15.4815 6.03561 15.4306 6.09215L13.0391 9.40642C13.0144 9.44716 13 9.4946 13 9.54545C13 9.69607 13.1244 9.81817 13.2778 9.81817H15.5L15.1067 11.6181C15.0918 11.6515 15.0833 11.6885 15.0833 11.7273C15.0833 11.8779 15.2077 12 15.3611 12C15.444 12 15.5185 11.9644 15.5694 11.9079L17.9609 8.59358C17.9856 8.55284 18 8.5054 18 8.45456C18 8.30394 17.8756 8.18183 17.7222 8.18183H15.5L15.8933 6.38192C15.9082 6.34851 15.9167 6.31152 15.9167 6.27272C15.9167 6.1221 15.7923 6 15.6389 6Z" fill="white"/>
<path d="M15.0589 5.75763L15.0409 5.77769L15.0251 5.79958L12.6336 9.11385L12.6218 9.13019L12.6114 9.14743C12.5419 9.26212 12.5 9.39855 12.5 9.54545C12.5 9.98083 12.8569 10.3182 13.2778 10.3182H14.8789L14.6263 11.4742C14.5988 11.5529 14.5833 11.6382 14.5833 11.7273C14.5833 12.1627 14.9403 12.5 15.3611 12.5C15.5896 12.5 15.7979 12.4014 15.9411 12.2424L15.9591 12.2223L15.9749 12.2004L18.3664 8.88615L18.3782 8.86981L18.3886 8.85257C18.4581 8.73788 18.5 8.60145 18.5 8.45456C18.5 8.01918 18.1431 7.68183 17.7222 7.68183H16.1211L16.3737 6.5258C16.4012 6.4471 16.4167 6.3618 16.4167 6.27272C16.4167 5.83734 16.0597 5.5 15.6389 5.5C15.4104 5.5 15.2021 5.59864 15.0589 5.75763Z" stroke="black" stroke-opacity="0.25"/>
</g>
<defs>
<radialGradient id="paint0_radial" cx="0" cy="0" r="1" gradientUnits="userSpaceOnUse" gradientTransform="translate(16.0001 -2.57024) rotate(90) scale(35.3494 37.3954)">
<stop stop-color="#FFE16B"/>
<stop offset="0.26238" stop-color="#F9AF40"/>
<stop offset="0.704952" stop-color="#F37329"/>
<stop offset="1" stop-color="#CC3B02"/>
</radialGradient>
<radialGradient id="paint1_radial" cx="0" cy="0" r="1" gradientUnits="userSpaceOnUse" gradientTransform="translate(15.8896 -5.58641) rotate(90) scale(55.5153 43.7539)">
<stop stop-color="#A4C5FC"/>
<stop offset="0.26238" stop-color="#4DDBC1"/>
<stop offset="0.66094" stop-color="#68B723"/>
<stop offset="1" stop-color="#3A9104"/>
</radialGradient>
<linearGradient id="paint2_linear" x1="14.9122" y1="1.97747" x2="14.9122" y2="30.1694" gradientUnits="userSpaceOnUse">
<stop stop-color="white"/>
<stop offset="0.424479" stop-color="white" stop-opacity="0.235294"/>
<stop offset="0.820899" stop-color="white" stop-opacity="0.156863"/>
<stop offset="1" stop-color="white" stop-opacity="0.392157"/>
</linearGradient>
</defs>
</svg>
