<svg width="32" height="32" viewBox="0 0 32 32" fill="none" xmlns="http://www.w3.org/2000/svg">
<path opacity="0.75" d="M16 1.5C7.9994 1.5 1.5 7.9994 1.5 16C1.5 24.0006 7.9994 30.5 16 30.5C24.0006 30.5 30.5 24.0006 30.5 16C30.5 7.9994 24.0006 1.5 16 1.5Z" fill="url(#paint0_linear)"/>
<path opacity="0.5" d="M29.5 15.9995C29.5 23.4556 23.4554 29.5 16.0002 29.5C8.54425 29.5 2.5 23.4555 2.5 15.9995C2.5 8.54378 8.54425 2.5 16.0002 2.5C23.4554 2.5 29.5 8.54378 29.5 15.9995V15.9995Z" stroke="url(#paint1_linear)" stroke-linecap="round" stroke-linejoin="round"/>
<path opacity="0.5" d="M16 1.5018C8.0004 1.5018 1.5018 8.00039 1.5018 16C1.5018 23.9996 8.0004 30.4982 16 30.4982C23.9996 30.4982 30.4982 23.9996 30.4982 16C30.4982 8.00039 23.9996 1.5018 16 1.5018V1.5018Z" stroke="#001547" stroke-linecap="round" stroke-linejoin="round"/>
<path opacity="0.07" d="M16 6.03833C10.8796 6.03833 6.56616 9.51547 5.34501 14.2644C5.30043 14.4401 5.29636 14.6236 5.3331 14.8011C5.36984 14.9786 5.44645 15.1454 5.55714 15.2891C5.66784 15.4327 5.80974 15.5494 5.97216 15.6304C6.13458 15.7114 6.31329 15.7545 6.49484 15.7566H9.06277C9.31465 15.7601 9.56124 15.6843 9.76761 15.5401C9.97398 15.3959 10.1297 15.1906 10.2126 14.9531C11.0566 12.5673 13.3062 10.8592 16 10.8592C17.2635 10.8592 18.3619 11.3432 19.3345 12.007L17.6098 13.7288C17.4481 13.8968 17.339 14.1083 17.2958 14.3373C17.2527 14.5663 17.2773 14.8028 17.3668 15.0181C17.4563 15.2333 17.6067 15.4178 17.7996 15.5489C17.9926 15.6801 18.2196 15.7523 18.453 15.7566H25.8118C26.126 15.7535 26.4264 15.6275 26.6486 15.4058C26.8707 15.184 26.9969 14.8841 27 14.5705V7.22442C26.9957 6.99144 26.9234 6.76479 26.792 6.5722C26.6606 6.37962 26.4758 6.22947 26.2602 6.14014C26.0446 6.0508 25.8076 6.02617 25.5782 6.06925C25.3488 6.11233 25.137 6.22125 24.9686 6.38268L22.784 8.56355C20.8986 7.05832 18.5973 6.03833 16 6.03833ZM5.95825 18.2818C5.68549 18.3378 5.44074 18.4868 5.26593 18.7032C5.09112 18.9196 4.99713 19.1899 5.00007 19.4679V26.814C5.0044 27.047 5.07669 27.2736 5.20809 27.4662C5.33949 27.6588 5.5243 27.8089 5.73989 27.8983C5.95547 27.9876 6.19247 28.0122 6.42186 27.9692C6.65126 27.9261 6.86309 27.8172 7.03142 27.6557L9.21608 25.4749C11.1015 26.9801 13.4027 28.0001 16 28.0001C21.1205 28.0001 25.4339 24.5229 26.6551 19.774C26.6996 19.5983 26.7037 19.4148 26.667 19.2373C26.6302 19.0598 26.5536 18.893 26.4429 18.7493C26.3322 18.6057 26.1903 18.489 26.0279 18.408C25.8655 18.327 25.6868 18.2839 25.5052 18.2818H22.9373C22.6854 18.2783 22.4388 18.3541 22.2325 18.4983C22.0261 18.6425 21.8704 18.8478 21.7875 19.0853C20.9435 21.4711 18.6939 23.1792 16 23.1792C14.7366 23.1792 13.6382 22.6952 12.6655 22.0314L14.3903 20.3096C14.552 20.1416 14.6611 19.9301 14.7043 19.7011C14.7474 19.4721 14.7227 19.2356 14.6332 19.0203C14.5438 18.8051 14.3933 18.6206 14.2004 18.4895C14.0075 18.3583 13.7805 18.2861 13.5471 18.2818H6.18822C6.11174 18.2745 6.03473 18.2745 5.95825 18.2818Z" fill="#002E99"/>
<path opacity="0.2" d="M16 7.22433C11.4259 7.22433 7.58195 10.3428 6.49485 14.5704H9.06279C10.0725 11.7163 12.7953 9.67303 16 9.67303C18.0329 9.67303 19.8435 10.5242 21.1742 11.8539L18.453 14.5704H25.8119V7.22433L22.9373 10.0939C21.1619 8.32672 18.7064 7.22433 16 7.22433ZM6.18823 19.4678V26.8139L9.06279 23.9443C10.8382 25.7115 13.2937 26.8139 16 26.8139C20.5742 26.8139 24.4182 23.6955 25.5052 19.4678H22.9373C21.9276 22.322 19.2048 24.3652 16 24.3652C13.9672 24.3652 12.1566 23.5141 10.8258 22.1843L13.5471 19.4678H6.18823Z" fill="#002E99"/>
<path d="M16 6C11.4259 6 7.58195 9.11844 6.49485 13.3461H9.06279C10.0725 10.4919 12.7953 8.4487 16 8.4487C18.0329 8.4487 19.8435 9.29985 21.1742 10.6296L18.453 13.3461H25.8119V6L22.9373 8.86957C21.1619 7.10239 18.7064 6 16 6ZM6.18823 18.2435V25.5896L9.06279 22.72C10.8382 24.4872 13.2937 25.5896 16 25.5896C20.5742 25.5896 24.4182 22.4711 25.5052 18.2435H22.9373C21.9276 21.0976 19.2048 23.1409 16 23.1409C13.9672 23.1409 12.1566 22.2897 10.8258 20.96L13.5471 18.2435H6.18823Z" fill="#FAFAFA"/>
<path opacity="0.25" d="M16.2064 12.1877C16.0832 12.1877 15.9725 12.2393 15.8968 12.3212L12.3431 17.1238C12.3064 17.1828 12.285 17.2516 12.285 17.3253C12.285 17.5435 12.4698 17.7205 12.6978 17.7205H16L15.4155 20.3287C15.3934 20.3771 15.3808 20.4307 15.3808 20.4869C15.3808 20.7052 15.5656 20.8821 15.7936 20.8821C15.9168 20.8821 16.0276 20.8305 16.1032 20.7486L19.657 15.9459C19.6936 15.8869 19.715 15.8182 19.715 15.7445C19.715 15.5262 19.5302 15.3493 19.3022 15.3493H16L16.5845 12.7411C16.6066 12.6927 16.6192 12.6391 16.6192 12.5828C16.6192 12.3646 16.4344 12.1877 16.2064 12.1877V12.1877Z" fill="black"/>
<path opacity="0.85" d="M16.2064 11.3876C16.0832 11.3876 15.9725 11.4392 15.8968 11.5212L12.3431 16.3238C12.3064 16.3828 12.285 16.4516 12.285 16.5252C12.285 16.7435 12.4698 16.9204 12.6978 16.9204H16L15.4155 19.5286C15.3934 19.5771 15.3808 19.6307 15.3808 19.6869C15.3808 19.9051 15.5656 20.0821 15.7936 20.0821C15.9168 20.0821 16.0276 20.0305 16.1032 19.9485L19.657 15.1459C19.6936 15.0869 19.715 15.0181 19.715 14.9445C19.715 14.7262 19.5302 14.5493 19.3022 14.5493H16L16.5845 11.941C16.6066 11.8926 16.6192 11.839 16.6192 11.7828C16.6192 11.5646 16.4344 11.3876 16.2064 11.3876Z" fill="#FFE16B"/>
<defs>
<linearGradient id="paint0_linear" x1="11.9394" y1="2.30228" x2="11.9394" y2="30.4875" gradientUnits="userSpaceOnUse">
<stop stop-color="#A56DE2"/>
<stop offset="1" stop-color="#0D52BF"/>
</linearGradient>
<linearGradient id="paint1_linear" x1="15.6139" y1="2.04781" x2="15.6139" y2="29.8529" gradientUnits="userSpaceOnUse">
<stop stop-color="white"/>
<stop offset="0.507761" stop-color="white" stop-opacity="0.235294"/>
<stop offset="0.834566" stop-color="white" stop-opacity="0.156863"/>
<stop offset="1" stop-color="white" stop-opacity="0.392157"/>
</linearGradient>
</defs>
</svg>
